<mxfile host="app.diagrams.net" modified="2023-09-06T15:17:48.755Z" agent="Mozilla/5.0 (Windows NT 10.0; Win64; x64) AppleWebKit/537.36 (KHTML, like Gecko) Chrome/116.0.0.0 Safari/537.36" etag="rbaEkkUAraDwpM193wRV" version="21.5.0" type="device">
  <diagram name="PÃ¡gina-1" id="iEFBQFk6kqfk-xP_mgb5">
    <mxGraphModel dx="590" dy="925" grid="1" gridSize="10" guides="1" tooltips="1" connect="1" arrows="1" fold="1" page="1" pageScale="1" pageWidth="827" pageHeight="1169" math="0" shadow="0">
      <root>
        <mxCell id="0" />
        <mxCell id="1" parent="0" />
        <mxCell id="KtWaTGXksSJzquvTfun6-1" value="Off - State" style="whiteSpace=wrap;html=1;aspect=fixed;" vertex="1" parent="1">
          <mxGeometry x="320" y="80" width="80" height="80" as="geometry" />
        </mxCell>
        <mxCell id="KtWaTGXksSJzquvTfun6-2" value="" style="endArrow=classic;html=1;rounded=0;exitX=0.5;exitY=1;exitDx=0;exitDy=0;entryX=0.5;entryY=0;entryDx=0;entryDy=0;" edge="1" parent="1" source="KtWaTGXksSJzquvTfun6-1" target="KtWaTGXksSJzquvTfun6-22">
          <mxGeometry width="50" height="50" relative="1" as="geometry">
            <mxPoint x="320" y="130" as="sourcePoint" />
            <mxPoint x="370" y="250" as="targetPoint" />
          </mxGeometry>
        </mxCell>
        <mxCell id="KtWaTGXksSJzquvTfun6-9" value="select_coffee_brewing_option&lt;span style=&quot;background-color: rgb(31, 31, 31); color: rgb(204, 204, 204); font-family: Consolas, &amp;quot;Courier New&amp;quot;, monospace; font-size: 14px; --darkreader-inline-color: #c8c3bc; --darkreader-inline-bgcolor: #17191a;&quot; data-darkreader-inline-bgcolor=&quot;&quot; data-darkreader-inline-color=&quot;&quot;&gt;()&lt;/span&gt;" style="edgeLabel;html=1;align=center;verticalAlign=middle;resizable=0;points=[];" vertex="1" connectable="0" parent="KtWaTGXksSJzquvTfun6-2">
          <mxGeometry x="-0.2568" y="-1" relative="1" as="geometry">
            <mxPoint as="offset" />
          </mxGeometry>
        </mxCell>
        <mxCell id="KtWaTGXksSJzquvTfun6-15" value="turn_machine_off()" style="edgeStyle=orthogonalEdgeStyle;rounded=0;orthogonalLoop=1;jettySize=auto;html=1;entryX=1;entryY=0.5;entryDx=0;entryDy=0;" edge="1" parent="1" source="KtWaTGXksSJzquvTfun6-3" target="KtWaTGXksSJzquvTfun6-1">
          <mxGeometry relative="1" as="geometry">
            <Array as="points">
              <mxPoint x="740" y="500" />
              <mxPoint x="740" y="120" />
            </Array>
          </mxGeometry>
        </mxCell>
        <mxCell id="KtWaTGXksSJzquvTfun6-17" value="serve_coffee()" style="edgeStyle=orthogonalEdgeStyle;rounded=0;orthogonalLoop=1;jettySize=auto;html=1;entryX=0.5;entryY=1;entryDx=0;entryDy=0;" edge="1" parent="1" source="KtWaTGXksSJzquvTfun6-3" target="KtWaTGXksSJzquvTfun6-19">
          <mxGeometry relative="1" as="geometry">
            <mxPoint x="190" y="260" as="targetPoint" />
            <Array as="points">
              <mxPoint x="170" y="500" />
            </Array>
          </mxGeometry>
        </mxCell>
        <mxCell id="KtWaTGXksSJzquvTfun6-3" value="Ready - State" style="whiteSpace=wrap;html=1;aspect=fixed;" vertex="1" parent="1">
          <mxGeometry x="319" y="460" width="80" height="80" as="geometry" />
        </mxCell>
        <mxCell id="KtWaTGXksSJzquvTfun6-13" value="&lt;span style=&quot;--darkreader-inline-bgcolor: #0f0d12; background-color: rgb(19, 16, 23);&quot; data-darkreader-inline-bgcolor=&quot;&quot;&gt;reach_desired_temperature()&lt;br&gt;&lt;/span&gt;" style="edgeStyle=orthogonalEdgeStyle;rounded=0;orthogonalLoop=1;jettySize=auto;html=1;" edge="1" parent="1" source="KtWaTGXksSJzquvTfun6-10" target="KtWaTGXksSJzquvTfun6-3">
          <mxGeometry relative="1" as="geometry" />
        </mxCell>
        <mxCell id="KtWaTGXksSJzquvTfun6-14" value="turn_machine_off()" style="edgeStyle=orthogonalEdgeStyle;rounded=0;orthogonalLoop=1;jettySize=auto;html=1;entryX=1;entryY=0.5;entryDx=0;entryDy=0;" edge="1" parent="1" source="KtWaTGXksSJzquvTfun6-10" target="KtWaTGXksSJzquvTfun6-1">
          <mxGeometry relative="1" as="geometry">
            <Array as="points">
              <mxPoint x="710" y="380" />
              <mxPoint x="710" y="120" />
            </Array>
          </mxGeometry>
        </mxCell>
        <mxCell id="KtWaTGXksSJzquvTfun6-10" value="Heating - State" style="whiteSpace=wrap;html=1;aspect=fixed;" vertex="1" parent="1">
          <mxGeometry x="320" y="330" width="80" height="80" as="geometry" />
        </mxCell>
        <mxCell id="KtWaTGXksSJzquvTfun6-20" value="turn_machine_off()" style="edgeStyle=orthogonalEdgeStyle;rounded=0;orthogonalLoop=1;jettySize=auto;html=1;entryX=0;entryY=0.5;entryDx=0;entryDy=0;" edge="1" parent="1" source="KtWaTGXksSJzquvTfun6-19" target="KtWaTGXksSJzquvTfun6-1">
          <mxGeometry relative="1" as="geometry">
            <Array as="points">
              <mxPoint x="170" y="120" />
            </Array>
          </mxGeometry>
        </mxCell>
        <mxCell id="KtWaTGXksSJzquvTfun6-21" value="select_coffee_brewing_option()" style="edgeStyle=orthogonalEdgeStyle;rounded=0;orthogonalLoop=1;jettySize=auto;html=1;entryX=0;entryY=0.5;entryDx=0;entryDy=0;" edge="1" parent="1" source="KtWaTGXksSJzquvTfun6-19" target="KtWaTGXksSJzquvTfun6-22">
          <mxGeometry relative="1" as="geometry">
            <Array as="points">
              <mxPoint x="250" y="420" />
              <mxPoint x="250" y="240" />
            </Array>
          </mxGeometry>
        </mxCell>
        <mxCell id="KtWaTGXksSJzquvTfun6-19" value="Waiting - State" style="whiteSpace=wrap;html=1;aspect=fixed;" vertex="1" parent="1">
          <mxGeometry x="130" y="380" width="80" height="80" as="geometry" />
        </mxCell>
        <mxCell id="KtWaTGXksSJzquvTfun6-23" value="start_heating()" style="edgeStyle=orthogonalEdgeStyle;rounded=0;orthogonalLoop=1;jettySize=auto;html=1;" edge="1" parent="1" source="KtWaTGXksSJzquvTfun6-22" target="KtWaTGXksSJzquvTfun6-10">
          <mxGeometry relative="1" as="geometry" />
        </mxCell>
        <mxCell id="KtWaTGXksSJzquvTfun6-25" value="error_throw()" style="edgeStyle=orthogonalEdgeStyle;rounded=0;orthogonalLoop=1;jettySize=auto;html=1;" edge="1" parent="1" source="KtWaTGXksSJzquvTfun6-22" target="KtWaTGXksSJzquvTfun6-24">
          <mxGeometry relative="1" as="geometry">
            <Array as="points">
              <mxPoint x="560" y="220" />
              <mxPoint x="560" y="220" />
            </Array>
          </mxGeometry>
        </mxCell>
        <mxCell id="KtWaTGXksSJzquvTfun6-22" value="Process - State" style="whiteSpace=wrap;html=1;aspect=fixed;" vertex="1" parent="1">
          <mxGeometry x="320" y="200" width="80" height="80" as="geometry" />
        </mxCell>
        <mxCell id="KtWaTGXksSJzquvTfun6-26" style="edgeStyle=orthogonalEdgeStyle;rounded=0;orthogonalLoop=1;jettySize=auto;html=1;entryX=1;entryY=0.5;entryDx=0;entryDy=0;" edge="1" parent="1" source="KtWaTGXksSJzquvTfun6-24" target="KtWaTGXksSJzquvTfun6-1">
          <mxGeometry relative="1" as="geometry">
            <Array as="points">
              <mxPoint x="610" y="120" />
            </Array>
          </mxGeometry>
        </mxCell>
        <mxCell id="KtWaTGXksSJzquvTfun6-27" value="select_coffee_brewing_option()" style="edgeStyle=orthogonalEdgeStyle;rounded=0;orthogonalLoop=1;jettySize=auto;html=1;entryX=1;entryY=0.75;entryDx=0;entryDy=0;" edge="1" parent="1" source="KtWaTGXksSJzquvTfun6-24" target="KtWaTGXksSJzquvTfun6-22">
          <mxGeometry relative="1" as="geometry">
            <Array as="points">
              <mxPoint x="460" y="260" />
              <mxPoint x="460" y="260" />
            </Array>
          </mxGeometry>
        </mxCell>
        <mxCell id="KtWaTGXksSJzquvTfun6-24" value="Error - State" style="whiteSpace=wrap;html=1;aspect=fixed;" vertex="1" parent="1">
          <mxGeometry x="580" y="190" width="80" height="80" as="geometry" />
        </mxCell>
      </root>
    </mxGraphModel>
  </diagram>
</mxfile>
